<?xml version="1.0" encoding="utf-8"?>
<!-- Generator: Adobe Illustrator 27.5.0, SVG Export Plug-In . SVG Version: 6.00 Build 0)  -->
<svg version="1.1" id="Calque_1" xmlns="http://www.w3.org/2000/svg" xmlns:xlink="http://www.w3.org/1999/xlink" x="0px" y="0px"
	 viewBox="0 0 116 50" style="enable-background:new 0 0 116 50;" xml:space="preserve">
<style type="text/css">
	.st0{fill:#0F4876;}
	.st1{fill:#6D6E70;}
</style>
<g>
	<g>
		<path class="st0" d="M113.7,22.6c-0.9-0.8-2-1.5-3.2-1.8c-1-0.3-2-0.3-3.1-0.3c-3,0-6,0-8.9,0c-0.5,0-1-0.1-1.4-0.5
			c-1.3-1-1-2.8,0.1-3.5c0.5-0.3,1-0.4,1.6-0.4c5.6,0,11.1,0,16.7,0c0.1,0,0.1,0,0.2,0c0-1.7,0-3.4,0-5.1c-0.1,0-0.1,0-0.1,0
			c-5.5,0-11,0-16.6,0c-0.6,0-1.1,0-1.7,0.1c-1,0.1-1.8,0.4-2.7,0.9c-0.9,0.6-1.8,1.3-2.4,2.2c-0.7,1-1.1,2-1.1,3.2
			c-0.1,1-0.1,1.9,0.2,2.9c0.2,0.8,0.5,1.6,1.1,2.3c0.4,0.4,0.8,0.9,1.2,1.2c1.3,1.2,2.9,1.8,4.7,1.8c3.2,0,6.5,0,9.7,0
			c0.2,0,0.4,0,0.6,0c1.4,0.2,2.4,1.3,2.3,2.7c0,0.8-0.4,1.4-1,1.8c-0.5,0.5-1.2,0.6-1.9,0.6c-5.6,0-11.2,0-16.8,0
			c-0.1,0-0.1,0-0.2,0c0,1.7,0,3.4,0,5.1c0.1,0,0.2,0,0.3,0c4.3,0,8.7,0,13,0c1.4,0,2.7,0,4.1,0c0.7,0,1.4-0.1,2-0.2
			c1.5-0.4,2.7-1.1,3.7-2.3c0.9-1,1.6-2.2,1.9-3.6c0.1-0.3,0.1-0.6,0.1-0.8c0-0.4,0-0.8,0-1.2c0-0.3-0.1-0.6-0.1-1
			C115.6,25.1,114.9,23.7,113.7,22.6z"/>
		<path class="st0" d="M0.2,25.8c0.3,1.8,1.1,3.5,2.2,5c0.7,1.1,1.7,1.9,2.7,2.7c2.1,1.6,4.6,2.3,7.3,2.4c1.5,0,3,0,4.5,0
			c0.1,0,0.1,0,0.2,0c0-1.6,0-3.2,0-4.8c-0.3,0-0.5,0-0.8,0c-1.5,0-3.1,0.1-4.6-0.1c-0.9-0.1-1.7-0.3-2.5-0.8
			c-1.1-0.6-2.1-1.5-2.8-2.5c-1.1-1.6-1.6-3.3-1.3-5.2c0.3-2.1,1.3-3.9,3.1-5.2c0.8-0.6,1.8-1,2.8-1.3c0.6-0.1,1.2-0.1,1.8-0.2
			c1.6,0,3.1,0,4.7,0c0.7,0,1.4,0,2,0c0.2,0,0.5,0,0.7,0c0,6.7,0,13.4,0,20.1c1.7,0,3.3,0,5,0c0-8.3,0-16.6,0-25c-0.1,0-0.1,0-0.2,0
			c-3.6,0-7.3,0-10.9,0c-0.6,0-1.2,0-1.8,0c-0.7,0-1.4,0.1-2,0.2c-1.4,0.2-2.6,0.7-3.8,1.4c-1.1,0.6-2.1,1.5-3,2.4
			c-0.9,1-1.6,2.1-2.2,3.3c-0.6,1.2-0.9,2.4-1,3.7c0,0.2,0,0.5-0.1,0.7c0,0.6,0,1.1,0,1.7c0,0.1,0,0.2,0,0.2
			C0.1,24.9,0.1,25.3,0.2,25.8z"/>
		<path class="st0" d="M52.1,19c-1.2-3-3.2-5.3-6.1-6.8c-1.4-0.7-2.9-1.2-4.5-1.3c-1.1-0.1-2.2-0.1-3.3-0.1c-3.4,0-6.8,0-10.3,0
			c-0.1,0-0.1,0-0.2,0c0,8.3,0,16.6,0,25c0.2,0,0.5,0,0.7,0c3.4,0,6.8,0,10.2,0c1,0,2-0.1,3-0.1c1.3-0.1,2.6-0.4,3.8-1
			c1.5-0.7,2.9-1.7,4.1-2.9c1.2-1.4,2.1-2.9,2.7-4.7c0.4-1.3,0.6-2.7,0.6-4.1C52.8,21.6,52.6,20.3,52.1,19z M47.2,26.4
			c-0.4,0.9-0.9,1.7-1.6,2.4c-0.9,0.9-1.9,1.4-3,1.8C41.8,30.9,41,31,40.2,31c-2.4,0-4.8,0-7.3,0c-0.1,0-0.1,0-0.2,0
			c0-5.1,0-10.2,0-15.3c0.1,0,0.2,0,0.2,0c2.2,0,4.4,0,6.6,0c1.3,0,2.7,0.2,3.9,0.8c1.6,0.8,2.9,2,3.6,3.7c0.4,0.8,0.6,1.7,0.7,2.6
			C48,24,47.7,25.2,47.2,26.4z"/>
		<path class="st0" d="M75.1,10.9c-0.7,0-1.4,0.1-2.2,0.3c-1.1,0.2-2.2,0.7-3.3,1.2c-1.2,0.6-2.3,1.5-3.2,2.5
			c-0.6,0.6-1.1,1.4-1.6,2.1c-1.1,1.7-1.7,3.6-1.7,5.7c0,1,0,1.9,0.1,2.9c0.3,1.9,1.1,3.5,2.1,5.1c0.7,1.1,1.7,1.9,2.7,2.7
			c2.2,1.7,4.7,2.4,7.3,2.4c1.5,0,3,0,4.5,0c0.1,0,0.1,0,0.2,0c0-1.6,0-3.2,0-4.8c-0.1,0-0.1,0-0.2,0c-1.7,0-3.5,0.1-5.2-0.1
			c-0.9-0.1-1.7-0.3-2.5-0.8c-1.1-0.6-2-1.4-2.7-2.4c-1.2-1.6-1.7-3.4-1.4-5.4c0.3-2.1,1.3-3.9,3.1-5.2c1-0.7,2.1-1.2,3.3-1.3
			c0.8-0.1,1.7-0.1,2.5-0.1c1.7,0,3.4,0,5,0c0.1,0,0.2,0,0.4,0c0.2,0,0.5,0,0.8,0c0,6.7,0,13.4,0,20.1c1.7,0,3.3,0,5,0
			c0-8.3,0-16.6,0-25c-0.1,0-0.1,0-0.1,0C83.8,10.9,79.4,10.9,75.1,10.9z"/>
		<path class="st0" d="M55.5,35.8c1.7,0,3.3,0,5,0c0-8.3,0-16.6,0-24.9c-1.7,0-3.3,0-5,0C55.5,19.2,55.5,27.5,55.5,35.8z"/>
	</g>
	<path class="st1" d="M58.9,8.3c-0.9-0.8-1.7-1.6-2.6-2.4c-0.3,0.3-0.6,0.7-0.9,1c0.9,0.8,1.7,1.6,2.5,2.4
		C58.3,8.9,58.6,8.6,58.9,8.3z"/>
	<g>
		<g>
			<path class="st1" d="M57,5.1c0.9,0.8,1.7,1.6,2.6,2.4c0.3-0.3,0.6-0.6,0.9-1c-0.9-0.8-1.7-1.6-2.5-2.4C57.6,4.5,57.3,4.8,57,5.1z
				"/>
		</g>
		<g>
			<path class="st1" d="M30.4,41.3c0,0.7,0,1.4,0,2.1C30.4,42.7,30.4,42,30.4,41.3c0-0.9,0-1.7,0-2.6C30.4,39.6,30.4,40.4,30.4,41.3
				z"/>
			<path class="st1" d="M88.3,43.9c0.4-1,0.8-2.1,1.1-3.1c0.1-0.3,0.2-0.7,0.4-1c-0.2,0-0.4,0-0.6,0c-0.1,0-0.2,0-0.3,0.2
				c-0.4,1.1-0.8,2.2-1.3,3.4c0,0.1-0.1,0.1-0.1,0.2c-0.1-0.3-0.2-0.5-0.3-0.8c-0.3-0.9-0.7-1.8-1-2.8c0-0.1-0.1-0.1-0.1-0.1
				c-0.2,0-0.5,0-0.7,0c0,0.1,0,0.1,0.1,0.2c0.5,1.3,1,2.6,1.5,3.9c0.1,0.3,0.2,0.5,0.6,0.6c0.1,0,0.1,0,0.2,0
				C88,44.4,88.2,44.2,88.3,43.9z"/>
			<path class="st1" d="M67.1,43.5C67,43.4,67,43.3,67,43.2c0.1-0.2,0.1-0.4,0.1-0.6c0-0.4,0-0.8,0-1.2c0-0.1,0-0.1,0-0.2
				c-0.2,0-0.5,0-0.7,0c-0.1,0-0.2,0-0.2,0.2c0,0.3,0,0.6,0,0.9c0,0.1,0,0.2,0,0.3c-0.4-0.4-0.9-0.9-1.3-1.3
				c0.2-0.2,0.5-0.3,0.7-0.5c0.3-0.2,0.5-0.5,0.5-0.9c0-0.2,0-0.5,0-0.7c0-0.4-0.5-0.9-1-1c-0.4,0-0.8,0-1.2,0
				c-0.4,0-0.8,0.1-1.1,0.5c-0.2,0.3-0.2,0.6-0.2,0.9c0,0.5,0.1,0.8,0.5,1.1c0.1,0.1,0.2,0.2,0.3,0.3c-0.2,0.1-0.3,0.2-0.4,0.3
				c-0.5,0.2-0.7,0.6-0.7,1.1c0,0.2,0,0.3,0,0.5c-0.1,0.8,0.8,1.4,1.4,1.4c0.5,0,1,0,1.5,0c0.3,0,0.6,0,0.9-0.2
				c0.2-0.1,0.3-0.1,0.4,0.1c0.1,0.1,0.2,0.2,0.3,0.2c0.2,0,0.5,0,0.7,0c0.1,0,0.2,0,0.3,0c-0.1-0.1-0.1-0.1-0.2-0.2
				C67.5,44,67.3,43.7,67.1,43.5z M64.2,39.1c0.1,0,0.2,0,0.3,0c0.1,0,0.2,0,0.3,0c0.3,0,0.5,0.1,0.5,0.3c0.1,0.3,0,0.6-0.2,0.7
				c-0.3,0.2-0.5,0.3-0.8,0.5c0,0-0.1,0-0.1,0c-0.2-0.2-0.5-0.4-0.6-0.8C63.5,39.3,63.8,39,64.2,39.1z M65.4,43.4
				c-0.6,0-1.1,0-1.7,0c-0.3,0-0.5-0.2-0.5-0.5c0-0.2-0.1-0.5,0.1-0.7c0.1-0.1,0.3-0.2,0.4-0.3c0.4-0.2,0.4-0.2,0.7,0.1
				c0.4,0.4,0.8,0.8,1.1,1.1c0,0,0.1,0.1,0.2,0.2C65.6,43.4,65.5,43.4,65.4,43.4z"/>
			<path class="st1" d="M98.3,43.5c0.1,0.5,0.6,0.8,1.1,0.8c0.9,0,1.7,0,2.6,0c0,0,0.1,0,0.1,0c0-0.2,0-0.5,0-0.7
				c-0.1,0-0.1,0-0.2,0c-0.8,0-1.6,0-2.4,0c-0.3,0-0.4-0.1-0.4-0.3c0,0,0-0.1,0-0.1c-0.1-0.2,0-0.3,0.2-0.4c0.9-0.4,1.8-0.8,2.7-1.2
				c0.1-0.1,0.2-0.1,0.2-0.2c0-0.2,0-0.4,0-0.6c-0.1-0.6-0.5-1-1-1c-0.5,0-1,0-1.6,0c-0.6,0-1,0.4-1.1,0.9c0,0.2,0,0.3,0,0.5
				c0,0.6,0,1.3,0,1.9C98.2,43.2,98.2,43.4,98.3,43.5z M99,40.9c0-0.2,0.2-0.3,0.4-0.3c0.5,0,1,0,1.5,0c0.2,0,0.4,0.2,0.3,0.4
				c0,0,0,0.1-0.1,0.1c-0.7,0.3-1.4,0.7-2.1,1c0,0,0,0,0,0C99,41.6,99,41.2,99,40.9z"/>
			<path class="st1" d="M81.2,43.6c-0.8,0-1.6,0-2.5,0c-0.2,0-0.3-0.1-0.4-0.3c0-0.1,0-0.2,0-0.3c0-0.1,0-0.2,0.2-0.3
				c0.8-0.4,1.6-0.7,2.3-1.1c0.2-0.1,0.4-0.1,0.5-0.3c0.1-0.1,0-0.4,0-0.6c0-0.7-0.4-1.1-1.1-1.1c-0.5,0-0.9,0-1.4,0
				c-0.8,0-1.3,0.5-1.3,1.3c0,0.7,0,1.4,0,2.1c0,0.7,0.5,1.2,1.2,1.2c0.4,0,0.8,0,1.2,0c0.4,0,0.9,0,1.3,0c0.1,0,0.2,0,0.2-0.2
				c0-0.1,0-0.3,0-0.4C81.4,43.7,81.3,43.6,81.2,43.6z M78.3,40.9c0-0.3,0.2-0.4,0.5-0.4c0.4,0,0.9,0,1.3,0c0.1,0,0.2,0,0.3,0
				c0.1,0.1,0.2,0.2,0.2,0.3c0,0.1-0.1,0.1-0.2,0.2c-0.6,0.3-1.3,0.6-1.9,0.9c-0.1,0-0.1,0-0.2,0.1C78.3,41.6,78.3,41.3,78.3,40.9z"
				/>
			<path class="st1" d="M79.9,44.4c-0.4,0-0.8,0-1.2,0C79.1,44.4,79.5,44.4,79.9,44.4c0.4,0,0.9,0,1.3,0
				C80.8,44.4,80.3,44.4,79.9,44.4z"/>
			<path class="st1" d="M26.8,39.8c-0.6,0-1.2,0-1.8,0c-0.6,0-1,0.5-1,1.1c0,0.2,0,0.4,0,0.6c0,0.2,0,0.4,0,0.6c0,0.4,0,0.8,0,1.2
				c0,0.7,0.5,1.1,1.1,1.1c0.5,0,1,0,1.6,0c0.7,0,1.2-0.5,1.2-1.2c0-0.8,0-1.6,0-2.3C27.9,40.2,27.5,39.8,26.8,39.8z M27.1,43
				c0,0.4-0.2,0.6-0.6,0.6c-0.4,0-0.8,0-1.2,0c-0.4,0-0.6-0.2-0.6-0.5c0-0.7,0-1.4,0-2.1c0-0.3,0.2-0.5,0.5-0.5c0.4,0,0.8,0,1.3,0
				c0.4,0,0.6,0.2,0.6,0.6c0,0.1,0,0.2,0,0.2c0,0.2,0,0.5,0,0.7C27.1,42.4,27.1,42.7,27.1,43z"/>
			<path class="st1" d="M24,41.4c0,0.2,0,0.4,0,0.6c0,0.4,0,0.8,0,1.2c0-0.4,0-0.8,0-1.2C24,41.8,24,41.6,24,41.4z"/>
			<path class="st1" d="M47,42c0-0.4,0-0.8,0-1.1c0-0.7-0.4-1.1-1.1-1.1c-0.5,0-1.1,0-1.6,0c-0.7,0-1.1,0.4-1.1,1.1
				c0,0.8,0,1.5,0,2.3c0,0.7,0.4,1.2,1.1,1.2c0.6,0,1.2,0,1.8,0c0.6,0,1-0.5,1.1-1.1C47,42.9,47,42.4,47,42C47,42,47,42,47,42z
				 M46.2,42.8c0,0.1,0,0.2,0,0.3c0,0.4-0.2,0.5-0.5,0.5c-0.4,0-0.9,0-1.3,0c-0.3,0-0.5-0.1-0.5-0.4c0-0.4,0-0.9,0-1.3
				c0-0.3,0-0.6,0-1c0-0.3,0.2-0.4,0.5-0.4c0.5,0,0.9,0,1.4,0c0.3,0,0.5,0.2,0.5,0.5c0,0.1,0,0.2,0,0.3c0,0.3,0,0.5,0,0.8
				C46.2,42.3,46.2,42.6,46.2,42.8z"/>
			<path class="st1" d="M74.8,41.6c-0.3,0-0.7,0-1,0c-0.5,0-0.6-0.1-0.6-0.6c0,0,0-0.1,0-0.1c0-0.3,0.1-0.4,0.4-0.4
				c0.7,0,1.4,0,2.1,0c0.1,0,0.1,0,0.2,0c0-0.3,0-0.5,0-0.7c-0.8,0-1.6,0-2.4,0c-0.1,0-0.2,0-0.2,0c-0.4,0-0.7,0.3-0.8,0.7
				c0,0.4-0.1,0.7,0,1.1c0,0.4,0.4,0.7,0.8,0.8c0.2,0,0.4,0,0.6,0c0.3,0,0.6,0,0.9,0c0.3,0,0.4,0.1,0.4,0.4c0,0.2,0,0.4,0,0.6
				c0,0.2-0.1,0.3-0.4,0.3c-0.7,0-1.4,0-2.1,0c-0.1,0-0.1,0-0.2,0c0,0.3,0,0.5,0,0.7c0,0,0.1,0,0.1,0c0.8,0,1.6,0,2.4,0
				c0.4,0,0.8-0.4,0.9-0.8c0-0.3,0-0.6,0-0.9C75.9,42,75.4,41.6,74.8,41.6z"/>
			<path class="st1" d="M21.2,41.6c-0.3,0-0.7,0-1,0c-0.4,0-0.6-0.1-0.6-0.6c0-0.1,0-0.1,0-0.2c0-0.3,0.1-0.4,0.4-0.4
				c0.7,0,1.4,0,2.1,0c0.1,0,0.1,0,0.2,0c0-0.3,0-0.5,0-0.7c0,0,0,0,0,0c-0.8,0-1.7,0-2.5,0c-0.4,0-0.7,0.3-0.8,0.7c0,0.3,0,0.7,0,1
				c0,0.4,0.4,0.7,0.7,0.8c0.2,0,0.3,0,0.5,0c0.3,0,0.7,0,1,0c0.2,0,0.3,0.1,0.4,0.3c0,0.2,0,0.4,0,0.6c0,0.3-0.1,0.4-0.4,0.4
				c-0.7,0-1.4,0-2.1,0c-0.1,0-0.1,0-0.2,0c0,0.3,0,0.5,0,0.7c0.1,0,0.1,0,0.2,0c0.7,0,1.5,0,2.2,0c0.5,0,0.9-0.3,1-0.8
				c0-0.3,0-0.6,0-0.8C22.4,42,21.8,41.5,21.2,41.6z"/>
			<path class="st1" d="M103.7,44.4c0.8,0,1.5,0,2.3,0c0.5,0,1-0.4,1-1c0-0.2,0-0.5,0-0.7c0-0.6-0.4-1.1-1.1-1.1c-0.3,0-0.6,0-0.9,0
				c-0.5,0-0.7-0.1-0.7-0.7c0-0.3,0.1-0.4,0.4-0.4c0.7,0,1.4,0,2.1,0c0.1,0,0.1,0,0.2,0c0-0.3,0-0.5,0-0.7c0,0,0,0-0.1,0
				c-0.8,0-1.7,0-2.5,0c-0.4,0-0.8,0.3-0.8,0.7c0,0.3,0,0.6,0,0.9c0,0.4,0.3,0.8,0.8,0.9c0.5,0,0.9,0,1.4,0c0.3,0,0.4,0.2,0.4,0.4
				c0,0.2,0,0.3,0,0.5c0,0.3-0.1,0.4-0.4,0.4c-0.7,0-1.4,0-2.1,0c-0.1,0-0.2,0-0.2,0.2c0,0.1,0,0.3,0,0.4
				C103.5,44.3,103.6,44.4,103.7,44.4z"/>
			<path class="st1" d="M56.6,41.6c-0.3,0-0.6,0-0.9,0c-0.6,0-0.7-0.1-0.7-0.7c0-0.3,0.1-0.4,0.4-0.4c0.7,0,1.4,0,2.1,0
				c0.1,0,0.1,0,0.2,0c0-0.2,0-0.4,0-0.7c0,0-0.1-0.1-0.1-0.1c-0.8,0-1.6,0-2.4,0c-0.4,0-0.8,0.3-0.8,0.7c-0.1,0.4-0.1,0.8,0,1.1
				c0,0.4,0.4,0.7,0.7,0.7c0.2,0,0.4,0,0.5,0c0.3,0,0.6,0,1,0c0.2,0,0.4,0.1,0.4,0.3c0,0.2,0,0.4,0,0.6c0,0.2-0.1,0.3-0.4,0.3
				c-0.7,0-1.4,0-2.1,0c-0.1,0-0.1,0-0.2,0c0,0.2,0,0.5,0,0.7c0.1,0,0.1,0,0.2,0c0.7,0,1.5,0,2.2,0c0.5,0,1-0.5,1-1
				c0-0.2,0-0.5,0-0.7C57.7,42.1,57.1,41.5,56.6,41.6z"/>
			<path class="st1" d="M36,39.8c-0.3,0-0.5,0-0.7,0c0,0.1,0,0.1,0,0.2c0,1,0,2.1,0,3.1c0,0.4-0.1,0.5-0.5,0.5c-0.3,0-0.6,0-0.9,0
				c-0.2,0-0.4,0-0.5,0c-0.2,0-0.3-0.2-0.3-0.4c0-1.1,0-2.1,0-3.2c0-0.1,0-0.1,0-0.2c-0.3,0-0.5,0-0.7,0c0,0.1,0,0.1,0,0.1
				c0,1.1,0,2.3,0,3.4c0,0.6,0.4,1.1,1.1,1.1c0.5,0,1.1,0,1.6,0c0.7,0,1.1-0.5,1.1-1.2c0-1.1,0-2.2,0-3.2C36,39.9,36,39.8,36,39.8z"
				/>
			<path class="st1" d="M51.5,39.8c-0.6,0-1.1,0-1.7,0c-0.6,0-1.1,0.4-1.1,1.1c0,1.1,0,2.3,0,3.4c0,0,0,0.1,0,0.1c0.2,0,0.5,0,0.7,0
				c0-0.1,0-0.1,0-0.2c0-1,0-2.1,0-3.1c0-0.4,0.1-0.5,0.6-0.5c0.4,0,0.8,0,1.2,0c0.1,0,0.2,0,0.3,0c0.2,0,0.3,0.2,0.3,0.4
				c0,1.1,0,2.1,0,3.2c0,0.1,0,0.1,0,0.2c0.3,0,0.5,0,0.7,0c0,0,0,0,0-0.1c0-1.2,0-2.3,0-3.5C52.6,40.2,52.1,39.8,51.5,39.8z"/>
			<path class="st1" d="M11.1,39.1c0.4,0,0.7,0,1.1,0c0.2,0,0.2,0,0.2,0.2c0,1.6,0,3.2,0,4.8c0,0.1,0,0.1,0,0.2c0,0,0.1,0.1,0.1,0.1
				c0.3,0,0.5,0,0.8,0c0-0.1,0-0.2,0-0.2c0-1.6,0-3.2,0-4.8c0-0.2,0-0.2,0.2-0.2c0.4,0,0.7,0,1.1,0c0-0.3,0-0.6,0-0.9
				c-1.2,0-2.4,0-3.5,0C11.1,38.5,11.1,38.8,11.1,39.1z"/>
			<path class="st1" d="M94.8,44.4c0.5,0,1.1,0,1.6,0c0.1,0,0.1,0,0.2,0c0-0.3,0-0.5,0-0.7c-0.6,0-1.1,0-1.7,0
				c-0.3,0-0.6-0.3-0.6-0.6c0-0.7,0-1.3,0-2c0-0.3,0.2-0.5,0.5-0.5c0.5,0,1,0,1.6,0c0.1,0,0.1,0,0.2,0c0-0.3,0-0.5,0-0.7
				c-0.6,0-1.2,0-1.8,0c-0.3,0-0.6,0.1-0.9,0.3c-0.2,0.1-0.3,0.3-0.3,0.5c0,0.1,0,0.3,0,0.4c0,0.7,0,1.4,0,2.2
				C93.6,43.8,94.1,44.4,94.8,44.4z"/>
			<path class="st1" d="M8.9,44.3c0.3,0,0.6,0,0.8,0c0-2.1,0-4.1,0-6.1c-0.3,0-0.6,0-0.8,0C8.9,40.3,8.9,42.3,8.9,44.3z"/>
			<path class="st1" d="M38.7,39.8c-0.1,0-0.2,0-0.2-0.2c0-0.3,0-0.6,0-0.9c0-0.2,0-0.4,0-0.5c-0.1-0.1-0.3,0-0.5,0
				c-0.2,0-0.2,0-0.2,0.2c0,1.9,0,3.8,0,5.7c0,0,0,0.1,0,0.1c0,0,0.1,0.1,0.1,0.1c0.1,0,0.3,0,0.4,0c0.2,0,0.2,0,0.2-0.2
				c0-1.1,0-2.3,0-3.4c0-0.1,0-0.1,0-0.2c0.3,0,0.5,0,0.8,0c0-0.2,0-0.5,0-0.7C39.1,39.8,38.9,39.7,38.7,39.8z"/>
			<path class="st1" d="M30.4,38.2c-0.1-0.1-0.3,0-0.5,0c-0.2,0-0.2,0-0.2,0.2c0,1.4,0,2.8,0,4.3c0,0.5,0,1,0,1.5
				c0,0.1,0,0.2,0.2,0.2c0.1,0,0.3,0,0.4,0c0.2,0,0.2-0.1,0.2-0.2c0-0.2,0-0.5,0-0.7c0-0.7,0-1.4,0-2.1c0-0.9,0-1.7,0-2.6
				C30.4,38.5,30.5,38.3,30.4,38.2z"/>
			<path class="st1" d="M84,39.8c-0.6,0-0.9,0.3-1,0.9c0,0.1,0,0.2,0,0.3c0,1.1,0,2.1,0,3.2c0,0.1,0,0.1,0,0.2c0.2,0,0.5,0,0.7,0
				c0-0.1,0-0.1,0-0.2c0-1.1,0-2.1,0-3.2c0-0.3,0.1-0.5,0.5-0.5c0.1,0,0.2,0,0.3,0c0-0.3,0-0.5,0-0.7C84.4,39.8,84.2,39.8,84,39.8z"
				/>
			<path class="st1" d="M40.6,44.3c0.2,0,0.5,0,0.7,0c0-1.5,0-3.1,0-4.6c-0.2,0-0.5,0-0.7,0C40.6,41.3,40.6,42.8,40.6,44.3z"/>
			<path class="st1" d="M91.8,39.9c0,0,0-0.1,0-0.1c0,0-0.1-0.1-0.1-0.1c-0.2,0-0.4,0-0.6,0c0,1.5,0,3.1,0,4.6c0.2,0,0.3,0,0.5,0
				c0.2,0,0.2,0,0.2-0.2C91.8,42.7,91.8,41.3,91.8,39.9z"/>
			<path class="st1" d="M91.4,39.3c0.3,0,0.5-0.2,0.5-0.5c0-0.3-0.2-0.5-0.5-0.5c-0.3,0-0.5,0.2-0.5,0.5
				C90.9,39,91.1,39.2,91.4,39.3z"/>
			<path class="st1" d="M40.9,38.2c-0.3,0-0.5,0.2-0.5,0.5c0,0.3,0.2,0.5,0.5,0.5c0.3,0,0.5-0.3,0.5-0.5
				C41.4,38.4,41.2,38.2,40.9,38.2z"/>
		</g>
	</g>
</g>
</svg>
